<svg width="25" height="25" viewBox="0 0 25 25" fill="none" xmlns="http://www.w3.org/2000/svg">
<g id="Down arrow ">
<path id="Vector" d="M17.4958 9.35525C17.3084 9.16899 17.055 9.06445 16.7908 9.06445C16.5266 9.06445 16.2732 9.16899 16.0858 9.35525L12.4958 12.8952L8.9558 9.35525C8.76844 9.16899 8.51498 9.06445 8.2508 9.06445C7.98661 9.06445 7.73316 9.16899 7.5458 9.35525C7.45207 9.44821 7.37768 9.55881 7.32691 9.68067C7.27614 9.80253 7.25 9.93323 7.25 10.0652C7.25 10.1973 7.27614 10.328 7.32691 10.4498C7.37768 10.5717 7.45207 10.6823 7.5458 10.7752L11.7858 15.0152C11.8788 15.109 11.9894 15.1834 12.1112 15.2341C12.2331 15.2849 12.3638 15.311 12.4958 15.311C12.6278 15.311 12.7585 15.2849 12.8804 15.2341C13.0022 15.1834 13.1128 15.109 13.2058 15.0152L17.4958 10.7752C17.5895 10.6823 17.6639 10.5717 17.7147 10.4498C17.7655 10.328 17.7916 10.1973 17.7916 10.0652C17.7916 9.93323 17.7655 9.80253 17.7147 9.68067C17.6639 9.55881 17.5895 9.44821 17.4958 9.35525Z" fill="#9C9C9C"/>
</g>
</svg>
