<svg width="109" height="69" viewBox="0 0 109 69" fill="none" xmlns="http://www.w3.org/2000/svg">
<g id="Logo">
<g id="Group">
<path id="Vector" d="M58.8086 23.6771C58.7421 27.6149 58.227 32.7325 56.2664 37.6174C56.1003 38.0162 56.067 38.6476 55.6018 38.6642C55.1698 38.6808 55.0203 38.066 54.8043 37.7005C54.1064 36.5872 53.9901 35.5239 54.4387 34.1946C55.3858 31.3866 55.7015 28.4291 55.9009 25.4716C56.2332 20.5202 55.8344 15.6352 54.5716 10.8334C54.04 8.83955 53.3587 6.92878 52.0627 5.26724C50.7003 3.52263 49.4707 3.50601 48.1083 5.26724C46.4633 7.3774 45.7655 9.88632 45.184 12.4285C44.3033 16.25 44.0707 20.1546 44.2036 24.0592C44.3532 28.4789 44.9181 32.8322 46.6627 36.9362C47.1446 38.0992 47.776 39.1792 48.6898 40.0432C49.5538 40.8574 50.019 40.9239 51.0658 40.3589C51.448 40.1429 51.6307 40.1928 51.8633 40.5583C52.1458 41.0069 52.4615 41.4223 52.8104 41.8211C53.176 42.2199 53.0929 42.4525 52.6775 42.7349C50.6338 44.1306 48.0916 43.7152 46.2806 41.6549C44.536 39.6777 43.5889 37.2685 42.9243 34.7762C41.08 27.8808 40.864 20.9189 42.0436 13.8906C42.5753 10.6839 43.4061 7.56017 45.0677 4.71894C46.0812 3.00755 47.3606 1.56201 49.4375 1.19647C50.9495 0.930629 52.2289 1.49555 53.3089 2.47586C55.2529 4.23709 56.2332 6.56324 56.9643 8.98909C58.3433 13.5749 58.8086 17.2802 58.8086 23.6771Z" fill="black"/>
<path id="Vector_2" d="M65.9695 22.3646C66.0526 27.2994 65.4544 32.1344 63.7762 36.8034C63.0784 38.7474 62.1978 40.575 60.6692 42.0372C58.5922 44.031 55.9172 44.031 53.8569 42.0206C51.9959 40.2261 51.0655 37.9 50.3344 35.524C48.5898 29.8581 48.3073 24.0594 48.7061 18.1941C48.9719 14.3892 49.6366 10.6674 51.0655 7.12828C51.2316 6.71289 51.2649 6.04828 51.7799 6.03166C52.2119 6.01504 52.3282 6.66304 52.5609 7.01197C53.3086 8.1252 53.3418 9.22181 52.8932 10.5344C52.0292 13.06 51.7467 15.7184 51.5141 18.3603C51.1486 22.3812 51.3479 26.3855 52.0126 30.3566C52.5609 33.5467 53.2753 36.7203 55.2858 39.3954C55.4686 39.6446 55.6679 39.8772 55.8839 40.0766C56.8642 40.9738 57.695 40.9738 58.6587 40.06C59.5061 39.2458 60.1042 38.2489 60.5861 37.1855C62.0815 33.796 62.6963 30.207 63.0119 26.5517C63.4273 21.5837 63.1615 16.6489 62.015 11.7972C61.4667 9.50428 60.7689 7.24458 59.2901 5.35043C59.0076 4.98489 58.6753 4.63597 58.3098 4.35351C57.7947 3.93812 57.1467 3.77197 56.615 4.17074C55.9006 4.68581 55.5516 4.41997 55.2526 3.77197C55.2193 3.70551 55.1529 3.63905 55.103 3.57258C54.0729 2.25997 54.1061 2.11043 55.7178 1.46243C57.5289 0.747969 59.6058 1.34612 61.0846 3.04089C62.8292 5.03474 63.7762 7.41074 64.4575 9.91966C65.6538 14.4723 65.9695 17.2803 65.9695 22.3646Z" fill="black"/>
<path id="Vector_3" d="M86.3214 54.0999C87.5343 54.0999 88.7638 54.0999 89.9768 54.0999C90.0931 54.0999 90.2094 54.183 90.1761 54.2993C90.1429 54.3823 90.0432 54.4987 89.9601 54.5153C88.7638 54.8476 89.1294 55.5787 89.4284 56.3762C90.5417 59.1842 91.6051 61.9922 92.7183 64.8667C93.0672 64.6174 93.1005 64.2685 93.2001 63.986C94.33 60.7959 95.4432 57.6223 96.5564 54.4322C96.6395 54.183 96.6395 53.7676 96.9386 53.7676C97.3041 53.7676 97.2875 54.2162 97.3706 54.4654C98.4838 57.5891 99.5805 60.7294 100.677 63.8697C100.793 64.1854 100.91 64.4845 101.026 64.8002C101.358 64.767 101.342 64.5011 101.408 64.3183C102.455 61.61 103.485 58.8851 104.565 56.1934C104.881 55.3959 104.98 54.831 104 54.5485C103.917 54.5319 103.851 54.4654 103.801 54.4156C103.768 54.3823 103.751 54.3159 103.668 54.1331C104.665 54.0168 105.612 54.0667 106.559 54.0999C106.675 54.0999 106.792 54.183 106.775 54.2993C106.758 54.3823 106.659 54.5153 106.576 54.5319C105.313 54.8143 105.13 55.9276 104.764 56.8913C103.601 59.9153 102.472 62.9393 101.308 65.9633C101.159 66.362 101.092 66.8273 100.577 67.226C99.2481 63.4543 97.9355 59.7325 96.5398 55.778C96.2574 56.5756 96.0414 57.1405 95.842 57.722C94.8451 60.5965 93.8481 63.471 92.8346 66.3454C92.7349 66.6279 92.7183 67.0765 92.4026 67.0931C92.0038 67.1097 92.0204 66.6113 91.9041 66.3288C90.6248 62.9725 89.3288 59.6162 88.0826 56.2433C87.8001 55.479 87.4512 54.8476 86.6204 54.5983C86.4875 54.5485 86.3048 54.482 86.3214 54.0999Z" fill="black"/>
<path id="Vector_4" d="M10.675 49.73C15.4437 49.73 19.099 53.5017 19.0658 58.3867C19.0326 63.2716 15.3606 67.0765 10.6584 67.0765C5.92305 67.0765 2.21782 63.2383 2.23443 58.3202C2.23443 53.4353 5.88982 49.7134 10.675 49.73ZM17.6867 57.6888C17.7034 57.0076 17.4707 55.7282 16.9557 54.5153C15.8923 52.0728 14.131 50.378 11.4227 50.0291C8.88058 49.6968 6.82028 50.7436 5.29166 52.7707C3.04858 55.7947 3.03197 60.53 5.17535 63.6371C7.76735 67.359 12.5526 67.658 15.56 64.2685C17.072 62.5903 17.6701 60.5633 17.6867 57.6888Z" fill="black"/>
<path id="Vector_5" d="M37.4755 66.5615C36.0798 66.5615 34.9167 66.5615 33.7204 66.5615C33.737 66.4618 33.737 66.3787 33.7703 66.3621C34.7506 66.0464 34.8503 65.3319 34.8337 64.4181C34.7838 61.4273 34.8004 58.4365 34.8337 55.4458C34.8337 54.6981 34.6343 54.3824 33.8367 54.4488C33.0392 54.5153 32.225 54.4821 31.4275 54.4655C30.9457 54.4488 30.713 54.5984 30.713 55.1301C30.7297 58.503 30.7297 61.8759 30.713 65.2655C30.713 66.0796 31.494 66.0132 31.8927 66.5282C30.6632 66.5282 29.5333 66.5282 28.3869 66.5282C28.4035 66.2956 28.553 66.2458 28.6693 66.2125C29.417 65.9799 29.55 65.4482 29.5333 64.7338C29.5001 61.6932 29.5001 58.6525 29.5333 55.5953C29.5333 54.831 29.4337 54.3325 28.5198 54.4488C28.4201 54.4655 28.3204 54.399 28.1875 54.3492C28.254 54.2495 28.2872 54.1498 28.337 54.1332C29.5167 53.8673 29.5167 53.8673 29.5167 52.6212C29.5167 51.9233 29.55 51.2421 29.766 50.5775C30.497 48.3344 32.7235 47.3707 35.249 48.1848C36.5617 48.6168 36.7777 49.0322 36.3457 50.511C36.2626 50.3947 36.1961 50.3282 36.1463 50.2285C35.4484 48.6833 34.3684 48.0519 32.8897 48.3344C31.71 48.567 30.8127 49.7633 30.7297 51.2421C30.5635 54.0501 30.5635 54.0501 33.3549 54.0501C36.03 54.0501 36.03 54.0501 36.03 56.6919C36.03 59.151 36.03 61.6267 36.03 64.0858C36.03 65.6642 36.03 65.6642 37.4755 66.5615Z" fill="black"/>
<path id="Vector_6" d="M73.0703 49.4975C73.818 48.9492 74.5325 48.6834 75.2303 48.3677C75.546 48.2182 75.6955 48.4009 75.7288 48.7C75.7454 48.9492 75.7454 49.1985 75.7454 49.4477C75.7454 53.2692 75.7454 57.0908 75.7454 60.8957C75.7454 61.1948 75.7454 61.4939 75.7454 61.7597C76.0445 61.8428 76.1109 61.66 76.2272 61.5603C78.2709 59.5831 80.298 57.5726 82.3583 55.612C82.8734 55.1302 82.8734 54.8643 82.2088 54.5819C82.0592 54.532 81.8931 54.4489 81.8598 54.1499C82.9066 54.1499 83.9534 54.1499 85.0002 54.1499C85.0666 54.4988 84.7842 54.532 84.6014 54.5819C83.7208 54.8311 83.0728 55.4292 82.4414 56.0606C80.9626 57.5228 79.4839 58.9683 77.9719 60.3972C77.5565 60.7794 77.4734 61.012 77.9885 61.3942C79.7663 62.7234 81.5109 64.0859 83.2389 65.4649C83.9035 65.9966 84.7842 66.0631 85.6315 66.6612C83.97 66.6612 82.4912 66.6612 81.0291 66.6612C80.9626 66.3788 81.1786 66.2957 81.3282 66.196C81.6272 65.9634 81.6106 65.7474 81.3282 65.5314C79.8494 64.3683 78.3706 63.2052 76.8752 62.0588C76.4931 61.7763 75.8118 62.2249 75.762 62.8563C75.6955 63.7369 75.7288 64.6175 75.7454 65.5148C75.7454 65.8471 75.9946 65.98 76.2605 66.1129C76.5263 66.2459 76.842 66.2957 77.0746 66.6779C75.7288 66.6779 74.4826 66.6779 73.2198 66.6779C73.2365 66.5948 73.2365 66.4951 73.2531 66.4951C74.5657 66.0963 74.5158 65.0828 74.4992 63.9862C74.466 59.7326 74.4826 55.4625 74.4826 51.2089C74.4992 49.8299 74.4992 49.8299 73.0703 49.4975Z" fill="black"/>
<path id="Vector_7" d="M64.2304 65.066C62.8015 66.6445 59.0796 67.7577 56.7701 66.1128C55.5904 65.2654 55.2082 63.6205 55.9227 62.3411C56.7036 60.9621 58.0329 60.2808 59.4286 59.6827C60.8242 59.0845 62.303 58.7024 63.7984 58.37C64.3966 58.2371 64.5627 58.0045 64.4464 57.3897C64.0144 55.1134 62.303 53.9836 59.8439 54.3325C58.6809 54.4987 57.7006 54.831 57.4015 56.1436C57.3516 56.3596 57.2686 56.6254 57.0193 56.7417C56.6538 55.4457 56.8532 54.9805 57.9996 54.4488C59.711 53.6347 61.4224 53.4519 63.2002 54.2328C64.7122 54.914 65.4932 56.0771 65.6427 57.7054C65.8421 59.8322 65.7258 61.959 65.7258 64.0857C65.7258 65.0827 65.6095 66.0796 66.9719 66.3953C66.2409 66.711 65.5596 66.578 64.9116 66.5614C64.5793 66.5614 64.5627 66.279 64.5461 66.0131C64.5129 65.6808 64.6624 65.282 64.2802 65.0328C64.4132 64.7337 64.5461 64.4513 64.5461 64.1024C64.5295 62.5239 64.5129 60.9454 64.5461 59.367C64.5627 58.7356 64.2969 58.6857 63.7984 58.802C63.3166 58.9184 62.8181 58.9848 62.3362 59.1177C60.5584 59.6328 58.7473 60.1479 57.4679 61.61C56.0889 63.1885 56.7867 65.631 58.7806 66.2457C60.1929 66.6777 61.5055 66.4119 62.7849 65.7805C63.2667 65.5811 63.6655 65.1657 64.2304 65.066Z" fill="black"/>
<path id="Vector_8" d="M24.3024 54.3491C24.0698 54.5319 23.8205 54.4654 23.5713 54.4654C22.4249 54.482 22.4249 54.482 22.4249 55.6783C22.4249 58.6691 22.4581 61.6599 22.4082 64.6506C22.3916 65.4482 22.5744 65.9965 23.3885 66.2291C23.5049 66.2623 23.6544 66.3122 23.6544 66.5614C22.4913 66.5614 21.3116 66.5614 20.1485 66.5614C20.1485 66.4949 20.1319 66.4119 20.1485 66.4119C21.2285 66.0962 21.3615 65.3153 21.3449 64.3017C21.2784 61.4605 21.295 58.6026 21.3449 55.7448C21.3615 54.914 21.2784 54.3159 20.2316 54.4488C20.1652 54.4488 20.0987 54.3823 20.0156 54.3491C20.0489 54.2826 20.0489 54.1996 20.0821 54.1996C21.3116 53.8673 21.3116 53.8672 21.3116 52.4716C21.3116 52.0229 21.295 51.5743 21.3615 51.1423C21.6605 49.0156 23.6045 47.6199 25.8476 47.9522C26.3295 48.0186 26.8279 48.1682 27.2932 48.3177C28.7055 48.7829 28.8218 48.9989 28.4562 50.5442C28.2735 50.5442 28.2569 50.378 28.207 50.2617C27.5424 48.7996 26.1633 48.0685 24.6347 48.3509C23.4716 48.5669 22.5744 49.7633 22.4581 51.2586C22.4415 51.5577 22.4415 51.8734 22.4415 52.1725C22.4581 52.7208 22.3085 53.3522 22.5412 53.8008C22.8236 54.3491 23.5547 53.9503 24.0698 54.0833C24.1695 54.1165 24.2858 54.1331 24.3024 54.3491Z" fill="black"/>
<path id="Vector_9" d="M68.25 49.5141C68.9811 49.0156 69.6623 48.7165 70.3269 48.4175C70.7257 48.2347 70.8918 48.4341 70.8918 48.8162C70.8918 49.0655 70.8918 49.3147 70.8918 49.5639C70.8918 54.3159 70.8918 59.0845 70.8918 63.8365C70.8918 64.8999 70.4765 66.1627 72.3706 66.3787C72.2875 66.4451 72.2045 66.495 72.1214 66.5615C70.9583 66.5615 69.7952 66.5615 68.6155 66.5615C68.6155 66.5116 68.5989 66.4119 68.5989 66.4119C69.6623 66.063 69.6955 65.2488 69.6789 64.3018C69.6457 59.9818 69.6623 55.6784 69.6623 51.3584C69.6955 49.863 69.6955 49.863 68.25 49.5141Z" fill="black"/>
<path id="Vector_10" d="M47.9608 65.2986C46.9473 66.8438 44.5547 67.4586 42.4445 66.8272C39.2211 65.8635 37.4433 62.5902 38.0581 59.0678C38.8556 54.4155 43.7073 52.3219 47.8445 54.7976C48.1602 54.9804 48.4261 55.3459 48.8581 54.9638C49.0408 54.7976 49.1571 55.0303 49.1571 55.1964C49.1571 55.9773 49.2568 56.7749 49.0574 57.7053C48.6919 57.1238 48.4427 56.6419 48.127 56.2099C46.0002 53.2026 41.6304 53.5515 39.9854 56.8413C38.6396 59.5662 38.9885 62.8727 40.8494 64.8499C42.6107 66.7441 45.2525 67.0598 47.4125 65.6475C47.5787 65.5146 47.7614 65.4149 47.9608 65.2986Z" fill="black"/>
<path id="Vector_11" d="M54.0403 66.5615C52.8772 66.5615 51.6975 66.5615 50.5344 66.5615C50.5511 66.4784 50.5344 66.3953 50.5511 66.3953C51.6477 66.063 51.764 65.2655 51.7307 64.2686C51.6643 61.8261 51.7141 59.4003 51.7141 56.9578C51.7141 55.612 51.7141 55.612 50.2188 55.3627C51.0661 54.9307 51.7307 54.5984 52.412 54.2827C52.6944 54.1498 52.8107 54.3326 52.8274 54.5984C52.8274 54.8144 52.844 55.047 52.844 55.263C52.844 58.204 52.844 61.1283 52.844 64.0692C52.844 65.0827 52.628 66.1793 54.2563 66.3123C54.1732 66.3953 54.1068 66.4784 54.0403 66.5615Z" fill="black"/>
<path id="Vector_12" d="M52.8282 51.3417C52.7784 51.89 52.4793 52.2389 51.931 52.2389C51.3661 52.2389 50.9839 51.9066 51.0005 51.3085C51.0171 50.7269 51.3993 50.3946 51.9808 50.4112C52.5291 50.4279 52.8116 50.7934 52.8282 51.3417Z" fill="black"/>
<path id="Vector_13" d="M36.3127 51.3252C36.2296 51.9067 35.9139 52.2723 35.3324 52.2391C34.8007 52.2058 34.4684 51.8569 34.485 51.3086C34.5016 50.7271 34.8671 50.3781 35.4487 50.4114C35.9804 50.4446 36.2628 50.8101 36.3127 51.3252Z" fill="black"/>
</g>
</g>
</svg>
