<svg width="25" height="25" viewBox="0 0 25 25" fill="none" xmlns="http://www.w3.org/2000/svg">
<g id="Outline/Interface/Search">
<rect width="24" height="23.9968" transform="translate(0.5 0.189453)" fill="#5A5C5F"/>
<path id="Icon" fill-rule="evenodd" clip-rule="evenodd" d="M14.8854 15.6331C12.2351 17.7555 8.35569 17.5885 5.8989 15.132C3.26287 12.4963 3.26287 8.22304 5.8989 5.58736C8.53494 2.95167 12.8088 2.95168 15.4448 5.58736C17.9016 8.04381 18.0687 11.9227 15.946 14.5726L21.1017 19.7276C21.3946 20.0204 21.3946 20.4952 21.1017 20.7881C20.8088 21.0809 20.3339 21.0809 20.041 20.7881L14.8854 15.6331ZM6.95956 14.0715C4.90931 12.0215 4.90931 8.69785 6.95956 6.64787C9.00982 4.5979 12.3339 4.5979 14.3842 6.64787C16.4329 8.69634 16.4344 12.0166 14.3887 14.067C14.3872 14.0685 14.3857 14.07 14.3842 14.0715C14.3827 14.073 14.3812 14.0745 14.3797 14.076C12.3291 16.1215 9.00831 16.12 6.95956 14.0715Z" fill="white"/>
</g>
</svg>
