<svg width="137" height="24" viewBox="0 0 137 24" fill="none" xmlns="http://www.w3.org/2000/svg">
<path d="M22.8994 10.0999C22.9994 9.59994 22.5994 8.99994 22.0994 8.99994L16.3994 8.19994L13.7994 2.99994C13.6994 2.79994 13.5994 2.69994 13.3994 2.59994C12.8994 2.29994 12.2994 2.49994 11.9994 2.99994L9.49941 8.19994L3.79941 8.99994C3.49941 8.99994 3.29941 9.09994 3.19941 9.29994C2.79941 9.69994 2.79941 10.2999 3.19941 10.6999L7.29941 14.6999L6.29941 20.3999C6.29941 20.5999 6.29941 20.7999 6.39941 20.9999C6.69941 21.4999 7.29941 21.6999 7.79941 21.3999L12.8994 18.6999L17.9994 21.3999C18.0994 21.4999 18.2994 21.4999 18.4994 21.4999C18.5994 21.4999 18.5994 21.4999 18.6994 21.4999C19.1994 21.3999 19.5994 20.8999 19.4994 20.2999L18.4994 14.5999L22.5994 10.5999C22.7994 10.4999 22.8994 10.2999 22.8994 10.0999Z" fill="#FDBD39"/>
<path d="M50.8994 10.0999C50.9994 9.59994 50.5994 8.99994 50.0994 8.99994L44.3994 8.19994L41.7994 2.99994C41.6994 2.79994 41.5994 2.69994 41.3994 2.59994C40.8994 2.29994 40.2994 2.49994 39.9994 2.99994L37.4994 8.19994L31.7994 8.99994C31.4994 8.99994 31.2994 9.09994 31.1994 9.29994C30.7994 9.69994 30.7994 10.2999 31.1994 10.6999L35.2994 14.6999L34.2994 20.3999C34.2994 20.5999 34.2994 20.7999 34.3994 20.9999C34.6994 21.4999 35.2994 21.6999 35.7994 21.3999L40.8994 18.6999L45.9994 21.3999C46.0994 21.4999 46.2994 21.4999 46.4994 21.4999C46.5994 21.4999 46.5994 21.4999 46.6994 21.4999C47.1994 21.3999 47.5994 20.8999 47.4994 20.2999L46.4994 14.5999L50.5994 10.5999C50.7994 10.4999 50.8994 10.2999 50.8994 10.0999Z" fill="#FDBD39"/>
<path d="M78.8994 10.0999C78.9994 9.59994 78.5994 8.99994 78.0994 8.99994L72.3994 8.19994L69.7994 2.99994C69.6994 2.79994 69.5994 2.69994 69.3994 2.59994C68.8994 2.29994 68.2994 2.49994 67.9994 2.99994L65.4994 8.19994L59.7994 8.99994C59.4994 8.99994 59.2994 9.09994 59.1994 9.29994C58.7994 9.69994 58.7994 10.2999 59.1994 10.6999L63.2994 14.6999L62.2994 20.3999C62.2994 20.5999 62.2994 20.7999 62.3994 20.9999C62.6994 21.4999 63.2994 21.6999 63.7994 21.3999L68.8994 18.6999L73.9994 21.3999C74.0994 21.4999 74.2994 21.4999 74.4994 21.4999C74.5994 21.4999 74.5994 21.4999 74.6994 21.4999C75.1994 21.3999 75.5994 20.8999 75.4994 20.2999L74.4994 14.5999L78.5994 10.5999C78.7994 10.4999 78.8994 10.2999 78.8994 10.0999Z" fill="#FDBD39"/>
<path d="M106.899 10.0999C106.999 9.59994 106.599 8.99994 106.099 8.99994L100.399 8.19994L97.7994 2.99994C97.6994 2.79994 97.5994 2.69994 97.3994 2.59994C96.8994 2.29994 96.2994 2.49994 95.9994 2.99994L93.4994 8.19994L87.7994 8.99994C87.4994 8.99994 87.2994 9.09994 87.1994 9.29994C86.7994 9.69994 86.7994 10.2999 87.1994 10.6999L91.2994 14.6999L90.2994 20.3999C90.2994 20.5999 90.2994 20.7999 90.3994 20.9999C90.6994 21.4999 91.2994 21.6999 91.7994 21.3999L96.8994 18.6999L101.999 21.3999C102.099 21.4999 102.299 21.4999 102.499 21.4999C102.599 21.4999 102.599 21.4999 102.699 21.4999C103.199 21.3999 103.599 20.8999 103.499 20.2999L102.499 14.5999L106.599 10.5999C106.799 10.4999 106.899 10.2999 106.899 10.0999Z" fill="#FDBD39"/>
<path d="M134.899 10.0999C134.999 9.59994 134.599 8.99994 134.099 8.99994L128.399 8.19994L125.799 2.99994C125.699 2.79994 125.599 2.69994 125.399 2.59994C124.899 2.29994 124.299 2.49994 123.999 2.99994L121.499 8.19994L115.799 8.99994C115.499 8.99994 115.299 9.09994 115.199 9.29994C114.799 9.69994 114.799 10.2999 115.199 10.6999L119.299 14.6999L118.299 20.3999C118.299 20.5999 118.299 20.7999 118.399 20.9999C118.699 21.4999 119.299 21.6999 119.799 21.3999L124.899 18.6999L129.999 21.3999C130.099 21.4999 130.299 21.4999 130.499 21.4999C130.599 21.4999 130.599 21.4999 130.699 21.4999C131.199 21.3999 131.599 20.8999 131.499 20.2999L130.499 14.5999L134.599 10.5999C134.799 10.4999 134.899 10.2999 134.899 10.0999Z" fill="#FDBD39"/>
</svg>
